<svg xmlns="http://www.w3.org/2000/svg" width="73.41" height="10.528" fill="none"><path d="M70.13 8.568c-.26 0-.53-.042-.7-.14l3.98-2.38c-.52-2.24-2.23-2.688-3.19-2.688-2.34 0-3.76 1.596-3.76 3.584s1.42 3.584 3.76 3.584c1.07 0 2-.392 2.74-1.106l-1.15-1.498c-.4.378-1.01.644-1.68.644zm.09-3.248c.37 0 .61.182.72.364L68.62 7.07c-.15-1.05.66-1.75 1.6-1.75zm-3.98-1.736h-2.35l-1.35 2.828-1.34-2.828h-2.02l.75 1.54-.75 1.288-1.34-2.828h-2.35l3.69 6.944 1.78-3.262 1.58 3.262z" fill="#db9641"/><path d="M48.367 3.447c-.82 0-1.45.378-1.79.896v-.672h-2.24v6.72h2.24v-3.36c0-1.148.67-1.568 1.12-1.568.49 0 1.12.238 1.12 1.344v3.584h2.24V6.583c0-2.086-1.29-3.136-2.69-3.136zm-6.83-.672c.74 0 1.34-.602 1.34-1.344 0-.742-.6-1.344-1.34-1.344-.74 0-1.35.602-1.35 1.344 0 .742.61 1.344 1.35 1.344zm-1.12 7.616h2.24v-6.72h-2.24zm-8.65-1.736c-.26 0-.53-.042-.7-.14l3.98-2.38c-.52-2.24-2.23-2.688-3.19-2.688-2.34 0-3.76 1.596-3.76 3.584s1.42 3.584 3.76 3.584c1.07 0 2-.392 2.74-1.106l-1.15-1.498c-.4.378-1.01.644-1.68.644zm.09-3.248c.37 0 .61.182.72.364l-2.32 1.386c-.15-1.05.66-1.75 1.6-1.75zm-7.12-5.32v4.256c-.5-.602-1.22-.896-2-.896-1.92 0-3.37 1.596-3.37 3.584s1.45 3.584 3.37 3.584c.78 0 1.5-.294 2-.896v.672h2.24V.087zM23.167 8.6a1.58 1.58 0 01-1.56-1.568c0-.854.71-1.568 1.56-1.568.86 0 1.57.714 1.57 1.568 0 .854-.71 1.568-1.57 1.568zm-4.92 1.792v-3.5c0-2.52-1.5-3.444-3.14-3.444-1.1 0-2.06.336-2.57.672l.67 1.61c.39-.224 1.02-.434 1.57-.434.78 0 1.16.434 1.2 1.036-1.96-.588-4.23.098-4.23 1.946 0 1.246.87 2.338 2.44 2.338.78 0 1.38-.294 1.82-.784v.56zm-2.24-2.66c-.11.896-.7 1.316-1.22 1.316-.43 0-.8-.294-.8-.728 0-.742.97-.924 2.02-.588zm-8.01-4.284c-.69 0-1.52.224-2.12.91-.43-.602-1.03-.91-1.8-.91-.83 0-1.25.336-1.74.896v-.672H.097v6.72h2.24v-3.36c0-1.26.55-1.568 1.01-1.568.49 0 .89.238.89 1.344v3.584h2.24v-3.36c0-1.26.55-1.568 1.01-1.568.49 0 .9.238.9 1.344v3.584h2.24V6.583c0-2.086-1.22-3.136-2.63-3.136z" fill="#fff"/></svg>