<?xml version="1.0" encoding="utf-8"?><svg xmlns="http://www.w3.org/2000/svg" xmlns:xlink="http://www.w3.org/1999/xlink"><symbol viewBox="0 0 14 14" id="icon-fb" xmlns="http://www.w3.org/2000/svg"><path d="M10.5.003L8.683 0c-2.04 0-3.358 1.352-3.358 3.445v1.589H3.501a.285.285 0 00-.286.286v2.3c0 .158.128.286.286.286h1.825v5.807c0 .158.128.286.286.286h2.381a.285.285 0 00.286-.286V7.907h2.134a.285.285 0 00.285-.286L10.7 5.32a.286.286 0 00-.285-.286H8.279V3.687c0-.647.154-.975.997-.975H10.5a.285.285 0 00.285-.286V.288A.286.286 0 0010.5.003z"/></symbol><symbol viewBox="0 0 20 20" id="icon-inst" xmlns="http://www.w3.org/2000/svg"><path d="M13.75 0h-7.5A6.25 6.25 0 000 6.25v7.5A6.25 6.25 0 006.25 20h7.5A6.25 6.25 0 0020 13.75v-7.5A6.25 6.25 0 0013.75 0zm4.375 13.75a4.38 4.38 0 01-4.375 4.375h-7.5a4.38 4.38 0 01-4.375-4.375v-7.5A4.38 4.38 0 016.25 1.875h7.5a4.38 4.38 0 014.375 4.375v7.5z"/><path d="M10 5a5 5 0 100 10 5 5 0 000-10zm0 8.125A3.13 3.13 0 016.875 10 3.129 3.129 0 0110 6.875 3.129 3.129 0 0113.125 10 3.13 3.13 0 0110 13.125zm5.375-7.834a.666.666 0 100-1.332.666.666 0 000 1.332z"/></symbol><symbol fill="none" viewBox="0 0 58 58" id="icon-service-calculator" xmlns="http://www.w3.org/2000/svg"><path d="M21 14h-5V9a1 1 0 10-2 0v5H9a1 1 0 100 2h5v5a1 1 0 102 0v-5h5a1 1 0 100-2zm28 0H37a1 1 0 100 2h12a1 1 0 100-2z" fill="#DB9641"/><path d="M30 0H0v58h58V0H30zM2 2h26v26H2V2zm0 54V30h26v26H2zm54 0H30V30h26v26zM30 28V2h26v26H30z" fill="#DB9641"/><path d="M37 47h12a1 1 0 100-2H37a1 1 0 100 2zm0-6h12a1 1 0 100-2H37a1 1 0 100 2zm-16.293-3.707a.999.999 0 00-1.414 0L15 41.586l-4.293-4.293a.999.999 0 10-1.414 1.414L13.586 43l-4.293 4.293a.999.999 0 101.414 1.414L15 44.414l4.293 4.293a.997.997 0 001.414 0 .999.999 0 000-1.414L16.414 43l4.293-4.293a.999.999 0 000-1.414z" fill="#DB9641"/></symbol><symbol fill="none" viewBox="0 0 60 60" id="icon-service-donation" xmlns="http://www.w3.org/2000/svg"><g clip-path="url(#dclip0)" fill="#DB9641"><path d="M59.637 28.146l-6-5a.997.997 0 00-.616-.22l-8.322-3.615c.173-.268.342-.537.492-.807 3.804-6.423 3.717-12.968-.216-16.288A10.315 10.315 0 0036.782.159c-2.66.453-5.047 1.9-6.68 4.048a10.635 10.635 0 00-6.68-4.048 10.314 10.314 0 00-8.192 2.057c-3.933 3.32-4.02 9.865-.23 16.261.14.254.3.505.46.756l-8.856 3.855a.993.993 0 00-.216.135c-.008.006-.018.007-.025.013l-6 5a1 1 0 00.242 1.685l5.398 2.347v16.733a.92.92 0 00.02.095.974.974 0 00.056.282c.03.059.065.114.105.165a.96.96 0 00.105.155.994.994 0 00.245.171c.026.014.043.038.07.05l.007.002.005.002 22.986 9.994h.003c.016.007.034.007.05.013a.996.996 0 00.34.069h.01a.995.995 0 00.34-.069c.016-.006.034-.006.05-.012l.003-.001 22.997-9.999a1 1 0 00.6-.965l-.003-.018c0-.008.005-.015.005-.023V32.178l5.398-2.347a1 1 0 00.242-1.685zM16.52 3.745a7.992 7.992 0 015.107-1.736 8.691 8.691 0 017.615 4.484 1.04 1.04 0 001.72 0 8.836 8.836 0 016.154-4.362 8.262 8.262 0 016.569 1.614c3.16 2.667 3.073 8.187-.23 13.766-2.644 4.782-9.874 9.346-13.352 11.343-3.478-1.997-10.709-6.562-13.368-11.37-3.287-5.552-3.374-11.072-.215-13.74zM2.89 28.735l4.28-3.567 20.944 9.105-4.28 3.567-20.945-9.105zM29 57.475L8.003 48.346V33.138l15.6 6.782a1 1 0 001.038-.149l4.36-3.632v21.336zm1-24.562l-20.49-8.91 7.16-3.116c3.502 4.281 9.39 7.989 12.942 9.988a.996.996 0 00.98 0c3.538-1.99 9.388-5.674 12.887-9.914l7.01 3.044-20.49 8.908zm21.997 15.433L31 57.476V36.048l4.36 3.632c.29.242.691.3 1.037.149l15.6-6.782v15.298zM36.167 37.75l-4.21-3.507 20.944-9.106 4.209 3.507-20.944 9.106z"/><path d="M21.001 8.007a.999.999 0 001-1v-1a1 1 0 10-2 0v1a.999.999 0 001 1zm0 2a.999.999 0 00-1 1v1a1 1 0 102 0v-1a1 1 0 00-1-1zm-2.999 0h1a1 1 0 100-2h-1a1 1 0 100 2zm4.999 0h1a1 1 0 100-2h-1a1 1 0 100 2z"/></g><defs><clipPath id="dclip0"><path fill="#fff" d="M0 0h60v60H0z"/></clipPath></defs></symbol><symbol fill="none" viewBox="0 0 60 60" id="icon-service-plan" xmlns="http://www.w3.org/2000/svg"><path d="M59 7h-3V5a1 1 0 00-1-1h-3V2.009a1 1 0 00-1-1L47 1a1 1 0 00-1 1v2H5a5.006 5.006 0 00-5 5v46a5.006 5.006 0 005 5h7a1 1 0 001-1v-3h46a1 1 0 001-1V8a1 1 0 00-1-1zm-9 3h-2V8h2v2zm0 2v22h-2V12h2zm-.05 24L49 38.838l-.946-2.844L49.95 36zM50 3.007V6h-2V3l2 .007zM5 6h41v30c0 .107.017.213.051.315l2 6a1 1 0 001.9 0l2-5.991a1 1 0 00.049-.315V6h2v44H5a4.948 4.948 0 00-3 1.026V9a3 3 0 013-3zm53 48H4v2h7v2H5a3 3 0 010-6h50a1 1 0 001-1V9h2v45z" fill="#DB9641"/><path d="M7 45h5v-2H8V27h4v-2H8V13h12v12h-4v2h11v6h2v-6h4v-2H22V13h18v12h-3v2h3v16H29v-6h-2v6H16v2h25a1 1 0 001-1V12a1 1 0 00-1-1H7a1 1 0 00-1 1v32a1 1 0 001 1zm49 13H30v2h26v-2zM35 0H9v2h26V0zm-7 58h-2v2h2v-2z" fill="#DB9641"/></symbol><symbol fill="none" viewBox="0 0 60 60" id="icon-service-tool" xmlns="http://www.w3.org/2000/svg"><path d="M36.423 15.2l1.368-1.368 1.935 1.935-1.368 1.369-1.935-1.936zM26.129 3.87a4.077 4.077 0 00-2.903 1.203l-.684.684 1.368 1.368.684-.684c.819-.818 2.251-.818 3.07 0l6.824 6.824 1.368-1.369-6.824-6.823a4.077 4.077 0 00-2.903-1.202z" fill="#DB9641"/><path d="M54.478 39.561l-5.206-5.206 1.618-1.618a7.922 7.922 0 002.336-5.64c0-2.131-.83-4.133-2.336-5.64L31.77 2.337A7.922 7.922 0 0026.128 0c-2.131 0-4.133.83-5.64 2.336l-3.637 3.637a7.922 7.922 0 00-2.336 5.64c0 2.131.83 4.133 2.336 5.64l19.12 19.12a7.922 7.922 0 005.64 2.337c2.132 0 4.134-.83 5.641-2.337l.65-.65 5.207 5.207c.7.7 1.084 1.628 1.084 2.62a3.68 3.68 0 01-1.084 2.617l-4.042 4.042c-.7.699-1.65 1.112-2.617 1.083a3.725 3.725 0 01-2.615-1.083L32.052 38.425a5.595 5.595 0 00-3.99-1.65 5.593 5.593 0 00-3.985 1.65l-1.819 1.82-4.662-4.663a2.516 2.516 0 00-1.794-.743 2.544 2.544 0 00-2.487 2.038l-.817 4.087 1.617 1.617-8.758 8.758a5.043 5.043 0 00-1.486 3.588A5.08 5.08 0 008.944 60a5.04 5.04 0 003.587-1.486l8.758-8.758 1.617 1.617 4.087-.817a2.544 2.544 0 002.04-2.487c0-.678-.264-1.314-.744-1.794l-4.663-4.662 1.82-1.82c1.395-1.396 3.836-1.4 5.237 0l11.784 11.785a5.67 5.67 0 003.983 1.65h.008a5.59 5.59 0 003.978-1.65l4.042-4.042a5.597 5.597 0 001.651-3.99 5.592 5.592 0 00-1.651-3.985zm-12.865-2.787a6.002 6.002 0 01-4.272-1.769l-19.12-19.12a6.002 6.002 0 01-1.77-4.272c0-1.613.629-3.13 1.77-4.272l3.636-3.636a6.001 6.001 0 014.272-1.77c1.613 0 3.13.628 4.272 1.77l19.12 19.12a6.002 6.002 0 011.77 4.272c0 1.613-.629 3.13-1.77 4.271l-3.636 3.637a6.002 6.002 0 01-4.272 1.77zM8.944 58.064a3.14 3.14 0 01-3.138-3.137c0-.838.327-1.627.92-2.22l.048-.048 4.438 4.438-.049.049a3.118 3.118 0 01-2.219.919zm3.637-2.336L8.143 51.29l7.34-7.34 4.438 4.437-7.34 7.341zm14.516-7.66a.602.602 0 01-.483.59l-3.07.614-8.945-8.945.614-3.07c.087-.435.701-.62 1.014-.307l10.695 10.695a.604.604 0 01.175.424z" fill="#DB9641"/></symbol><symbol viewBox="0 0 16 9" id="icon-vk" xmlns="http://www.w3.org/2000/svg"><path d="M8.785 8.923s.288-.032.436-.188c.136-.143.131-.412.131-.412s-.018-1.26.578-1.445c.587-.183 1.34 1.217 2.14 1.756.604.407 1.063.318 1.063.318l2.137-.03s1.117-.067.587-.93c-.043-.07-.309-.638-1.588-1.804-1.34-1.22-1.16-1.023.453-3.135.983-1.286 1.376-2.07 1.253-2.407-.117-.32-.84-.235-.84-.235L12.73.425s-.179-.024-.311.054a.668.668 0 00-.213.253s-.38.995-.888 1.842c-1.072 1.785-1.5 1.88-1.675 1.769-.408-.26-.306-1.039-.306-1.593 0-1.73.268-2.452-.52-2.638C8.555.05 8.363.009 7.694.002c-.859-.009-1.585.003-1.997.2-.273.132-.485.425-.356.442.16.02.52.095.71.35.247.33.238 1.069.238 1.069s.142 2.037-.33 2.29c-.325.173-.77-.18-1.725-1.8-.489-.83-.858-1.748-.858-1.748s-.072-.17-.2-.263C3.024.43 2.808.396 2.808.396L.522.411S.178.42.052.567C-.06.697.043.966.043.966s1.79 4.11 3.817 6.182c1.859 1.899 3.968 1.775 3.968 1.775h.957z"/></symbol></svg>